<svg xmlns="http://www.w3.org/2000/svg" data-name="Layer 1" viewBox="0 0 64 64"><path d="M34.69 38.87l2.87-1.13a3.58 3.58 0 0 0 2.08-4.44l-1.53-4.54a5.27 5.27 0 0 0 1-9.1v-.13c0-8.77-7.52-15.9-16.78-15.9S5.53 10.76 5.53 19.53v.31a5.24 5.24 0 0 0-1.71 3.89A5.33 5.33 0 0 0 7 28.56L5.43 33.31a3.57 3.57 0 0 0 2.09 4.43l2.86 1.12c-3.39.79-5.9 2.13-7.45 4a6.72 6.72 0 0 0-1.59 4.66V63a1 1 0 0 0 1 1H42.74a1 1 0 0 0 1-1V47.56a6.7 6.7 0 0 0-1.6-4.66C40.57 41 38.07 39.65 34.69 38.87zm2.16-2.94l-5.94 2.33-1-.1a1 1 0 0 0-.5.12 7.84 7.84 0 0 1-.7-2.57A11.93 11.93 0 0 0 31.56 33a7.94 7.94 0 0 0 5-2.68l1.21 3.58A1.62 1.62 0 0 1 36.85 35.93zm-14.3-.24c-5.32 0-9.64-4.69-9.64-10.45a10.92 10.92 0 0 1 .39-2.91 30.49 30.49 0 0 0 9.86-4.53 13.52 13.52 0 0 0 8.27 3.41 11.11 11.11 0 0 1-.95 10A10.69 10.69 0 0 1 28.35 31 1.72 1.72 0 0 0 27.3 29.4l-2.85-1a1.56 1.56 0 0 0-1.33.13 1.87 1.87 0 0 0-.87 1.35L22 31.57a1.84 1.84 0 0 0 .4 1.5 1.5 1.5 0 0 0 1.15.57l3 .06h0a1.65 1.65 0 0 0 1.4-.83c.33.06.66.12 1 .16A9.16 9.16 0 0 1 22.55 35.69zm5.42 4C24.3 43 20.75 43 17.08 39.65a7.86 7.86 0 0 0 1.05-3 10.85 10.85 0 0 0 8.79 0A8 8 0 0 0 28 39.65zm5.54-18.41c.49 0 1 0 1.52-.11a2.15 2.15 0 0 1 0 .23c.11 1.6.5 4.43.83 6.64A6.19 6.19 0 0 1 33 30.66a13.11 13.11 0 0 0 .56-9.42zm-8.82-4.67a17 17 0 0 0 4.48-6.06 12.93 12.93 0 0 1 5.59 8.7C29.18 19.81 26 17.71 24.69 16.57zM10 21.07c.27-3.13 2-11.83 12.51-12.52a15.66 15.66 0 0 1 4.9 1.09C23.94 17.83 13.53 20.42 10 21.07zM26.43 31.15l-.09.61-2.41-.06.21-1.4zM37.63 21a3.35 3.35 0 0 1 0 5.81c-.27-1.82-.59-4.22-.69-5.6 0-.14 0-.31 0-.49a3.37 3.37 0 0 1 .6.23zM22.31 5.57c7.91 0 14.37 5.85 14.8 13.18-.16 0-.32-.07-.48-.09a14.5 14.5 0 0 0-7.52-10.4l-.11 0h0a16.7 16.7 0 0 0-6.4-1.6h-.12c-10 .62-13.06 7.46-14 11.88a5.18 5.18 0 0 0-1 .2C8 11.38 14.43 5.57 22.31 5.57zM5.76 23.73A3.33 3.33 0 0 1 7.1 21.05a3.13 3.13 0 0 1 1-.52c0 .27-.06.52-.07.74s0 .35 0 .55l0 .3c-.12 1.08-.32 2.62-.59 4.49A3.38 3.38 0 0 1 5.76 23.73zm2.46 12.2a1.62 1.62 0 0 1-1-2l1.84-5.65v0l0 0V28.1c.31-2.06.54-3.73.69-5 .35-.05.81-.13 1.36-.25A13.05 13.05 0 0 0 11 25.24a12.59 12.59 0 0 0 5.36 10.43 7.82 7.82 0 0 1-.7 2.61 1 1 0 0 0-.5-.12l-1 .1zM3.28 62.06V47.51s0-.08 0-.12a4.67 4.67 0 0 1 1.21-3.32c1.25-1.51 4.06-3.4 10.32-3.94a16.88 16.88 0 0 0 1.79 1.65L21.3 62.06zm15.64-18.8a8 8 0 0 0 7.21 0L22.52 58.75zm22.86 4.12s0 .09 0 .13V62.06h-18l4.71-20.28a16.88 16.88 0 0 0 1.79-1.65c6.26.54 9.07 2.43 10.32 3.94A4.71 4.71 0 0 1 41.78 47.38zM59.12 0h-14a3.57 3.57 0 0 0-3.55 3.58v8.19a3.58 3.58 0 0 0 2.65 3.47l.11 2.08a1 1 0 0 0 .6.85A1 1 0 0 0 46 18l2.82-2.62H59.12a3.58 3.58 0 0 0 3.56-3.59V3.58A3.58 3.58 0 0 0 59.12 0zm1.62 11.77a1.64 1.64 0 0 1-1.62 1.65H48.4a1 1 0 0 0-.66.26l-1.58 1.47 0-.81a1 1 0 0 0-1-.92 1.63 1.63 0 0 1-1.61-1.65V3.58a1.63 1.63 0 0 1 1.61-1.64h14a1.64 1.64 0 0 1 1.62 1.64z"/><path d="M57.18 5.2H47.07a1 1 0 1 0 0 1.94H57.18a1 1 0 0 0 0-1.94zM57.18 8.22H47.07a1 1 0 1 0 0 1.94H57.18a1 1 0 0 0 0-1.94z"/></svg>