<?xml version="1.0" encoding="UTF-8" standalone="no"?>
<!-- Created with Inkscape (http://www.inkscape.org/) -->

<svg
   version="1.1"
   id="svg2"
   xml:space="preserve"
   width="523.03998"
   height="543.05334"
   viewBox="0 0 523.03998 543.05334"
   sodipodi:docname="a1-telekom-austria-seeklogo.com.eps"
   xmlns:inkscape="http://www.inkscape.org/namespaces/inkscape"
   xmlns:sodipodi="http://sodipodi.sourceforge.net/DTD/sodipodi-0.dtd"
   xmlns="http://www.w3.org/2000/svg"
   xmlns:svg="http://www.w3.org/2000/svg"><defs
     id="defs6" /><sodipodi:namedview
     id="namedview4"
     pagecolor="#ffffff"
     bordercolor="#666666"
     borderopacity="1.0"
     inkscape:pageshadow="2"
     inkscape:pageopacity="0.0"
     inkscape:pagecheckerboard="0" /><g
     id="g8"
     inkscape:groupmode="layer"
     inkscape:label="ink_ext_XXXXXX"
     transform="matrix(1.3333333,0,0,-1.3333333,0,543.05333)"><g
       id="g10"
       transform="scale(0.1)"><path
         d="m 3815.36,1525.62 106.22,64.5 1.25,2370.15 -103.37,100.57 -1.57,-973.31 -2.53,-1561.91"
         style="fill:#231f20;fill-opacity:1;fill-rule:nonzero;stroke:none"
         id="path12" /><path
         d="m 3243.7,3129.11 c -1.2,-1.17 -2.39,-2.34 -3.68,-3.58 -0.85,-0.81 -1.78,-1.68 -2.66,-2.52 -1.14,-1.09 -2.25,-2.16 -3.46,-3.29 -0.98,-0.92 -2.03,-1.89 -3.05,-2.84 -1.22,-1.13 -2.41,-2.25 -3.68,-3.42 -1.12,-1.02 -2.29,-2.08 -3.44,-3.13 -1.28,-1.17 -2.56,-2.33 -3.91,-3.54 -1.24,-1.11 -2.53,-2.26 -3.81,-3.41 -1.36,-1.2 -2.71,-2.4 -4.13,-3.65 -1.36,-1.19 -2.79,-2.43 -4.2,-3.66 -1.44,-1.25 -2.87,-2.48 -4.36,-3.76 -1.5,-1.29 -3.06,-2.61 -4.61,-3.93 -1.5,-1.27 -3,-2.54 -4.55,-3.83 -1.62,-1.36 -3.27,-2.73 -4.95,-4.12 -1.6,-1.32 -3.21,-2.65 -4.86,-4 -1.74,-1.41 -3.51,-2.84 -5.3,-4.29 -1.69,-1.36 -3.41,-2.74 -5.15,-4.13 -1.83,-1.45 -3.68,-2.92 -5.56,-4.4 -1.81,-1.42 -3.65,-2.86 -5.52,-4.3 -1.93,-1.51 -3.88,-3.01 -5.88,-4.54 -1.9,-1.45 -3.82,-2.91 -5.78,-4.39 -2.05,-1.55 -4.11,-3.1 -6.22,-4.67 -2,-1.5 -4.05,-3.01 -6.1,-4.51 -2.16,-1.59 -4.33,-3.18 -6.54,-4.78 -2.09,-1.51 -4.21,-3.04 -6.34,-4.56 -2.31,-1.65 -4.59,-3.28 -6.95,-4.94 -2.16,-1.53 -4.39,-3.07 -6.61,-4.61 -2.4,-1.68 -4.8,-3.35 -7.26,-5.03 -2.29,-1.57 -4.64,-3.14 -6.98,-4.72 -2.5,-1.69 -4.97,-3.37 -7.53,-5.06 -2.4,-1.6 -4.88,-3.21 -7.33,-4.82 -2.61,-1.7 -5.17,-3.4 -7.83,-5.11 -2.51,-1.62 -5.11,-3.25 -7.68,-4.87 -2.69,-1.71 -5.35,-3.42 -8.09,-5.14 -2.66,-1.65 -5.4,-3.32 -8.1,-4.98 -2.78,-1.71 -5.51,-3.41 -8.34,-5.12 -5.46,-3.3 -11.01,-6.61 -16.68,-9.92 -2.63,-1.54 -5.38,-3.09 -8.06,-4.63 -3.21,-1.85 -6.36,-3.69 -9.62,-5.53 -2.92,-1.65 -5.92,-3.29 -8.89,-4.94 -3.13,-1.74 -6.24,-3.49 -9.42,-5.22 -3.09,-1.68 -6.25,-3.36 -9.38,-5.03 -3.19,-1.72 -6.36,-3.43 -9.61,-5.13 -3.16,-1.67 -6.41,-3.33 -9.64,-4.99 -3.33,-1.72 -6.64,-3.43 -10.02,-5.15 -3.24,-1.64 -6.56,-3.27 -9.86,-4.91 -3.46,-1.72 -6.91,-3.44 -10.44,-5.15 -3.33,-1.62 -6.73,-3.24 -10.12,-4.85 -3.58,-1.71 -7.16,-3.42 -10.81,-5.12 -3.46,-1.61 -6.98,-3.22 -10.5,-4.82 -3.67,-1.68 -7.34,-3.35 -11.06,-5.02 -3.57,-1.6 -7.19,-3.18 -10.81,-4.77 -3.79,-1.66 -7.6,-3.31 -11.46,-4.96 -3.67,-1.57 -7.38,-3.13 -11.11,-4.69 -3.89,-1.62 -7.8,-3.25 -11.75,-4.86 -3.79,-1.54 -7.6,-3.08 -11.44,-4.61 -4.03,-1.6 -8.08,-3.19 -12.15,-4.78 -3.87,-1.5 -7.75,-2.99 -11.67,-4.48 -1.86,-0.7 -3.65,-1.42 -5.52,-2.12 l 173.91,-21.43 c 21.32,8.47 182.82,73.6 273.75,138.01 l -0.49,157.37 c -1.53,-1.54 -3.18,-3.17 -4.92,-4.88 -0.57,-0.56 -1.2,-1.17 -1.79,-1.74"
         style="fill:#302d2e;fill-opacity:1;fill-rule:nonzero;stroke:none"
         id="path14" /><path
         d="m 2770.33,3374.36 v -503.19 c 3.03,1.07 6.08,2.14 9.07,3.22 4.98,1.8 9.93,3.6 14.81,5.42 5.01,1.87 9.95,3.76 14.87,5.65 4.98,1.92 9.95,3.85 14.86,5.8 4.58,1.82 9.09,3.65 13.59,5.49 5.11,2.09 10.2,4.19 15.21,6.3 4.1,1.73 8.12,3.46 12.15,5.2 5.25,2.27 10.48,4.55 15.62,6.84 3.59,1.61 7.13,3.22 10.67,4.84 5.43,2.48 10.84,4.96 16.15,7.46 3.02,1.42 5.99,2.85 8.98,4.28 5.67,2.72 11.32,5.45 16.84,8.19 2.43,1.2 4.8,2.41 7.2,3.62 5.95,2.99 11.87,5.99 17.65,9.01 1.78,0.92 3.52,1.86 5.29,2.78 6.26,3.3 12.46,6.6 18.52,9.91 1.14,0.62 2.26,1.25 3.4,1.87 6.56,3.61 13.03,7.22 19.35,10.83 0.54,0.3 1.06,0.61 1.59,0.91 165.34,94.72 245.46,187.13 246.56,188.43 l 17.53,20.62 0.7,-219.69 -0.01,-0.01 4.37,-1407.75 520.05,-41.74 2.54,1569.73 1.59,984.53 -434,-63.94 c -75.12,-377.79 -537.14,-607.19 -595.15,-634.61"
         style="fill:#423f3f;fill-opacity:1;fill-rule:nonzero;stroke:none"
         id="path16" /><path
         d="m 1765.76,2360.66 238.87,-873.06 226.07,3.84 -351.63,1280.35 -113.31,-411.13"
         style="fill:#8d0f14;fill-opacity:1;fill-rule:nonzero;stroke:none"
         id="path18" /><path
         d="m 1989.43,1467.34 -492.92,-8.37 248.51,901.72 0.02,0.09 134.06,486.41 377.72,-1375.31 z M 3190.41,346.422 2245.42,3526.56 1492.88,3660.64 1125.64,2578.4 250.719,0 l 871.761,101.77 209.56,760.39 825.97,48.629 248.88,14.652 2.14,-7.812 172.89,-629.481 608.49,58.274"
         style="fill:#e81c24;fill-opacity:1;fill-rule:nonzero;stroke:none"
         id="path20" /><path
         d="M 1177.83,3501.8 0,137.109 230.625,3.01953 1116.91,2614.92 1468.74,3651.76 1177.83,3501.8"
         style="fill:#c1171d;fill-opacity:1;fill-rule:nonzero;stroke:none"
         id="path22" /><path
         d="M 2183.91,892.281 2345.63,310.43 2561,288.809 2391.89,904.52 2183.91,892.281"
         style="fill:#8d0f14;fill-opacity:1;fill-rule:nonzero;stroke:none"
         id="path24" /></g></g></svg>
