<svg xmlns="http://www.w3.org/2000/svg" width="512" height="512" data-name="Line cutting cut Ex" viewBox="0 0 512 512"><path d="M32 248H96V232H32V189.4946l74.8721-28.7968-5.7442-14.9336-80 30.769A8 8 0 0 0 16 184v80H32zM480 288H384a8 8 0 0 0-8 8v64a8 8 0 0 0 8 8h96v84.3516l-93.1279-35.8184a8 8 0 0 0-5.6812-.0239L296 448.4561V408a8.0005 8.0005 0 0 0-3.76-6.7842l-64-40A8.0023 8.0023 0 0 0 224 360H192a8 8 0 0 0-8 8v68.4559l-48-18V368a8 8 0 0 0-8-8H32V312H160a8 8 0 0 0 8-8V264H152v32H32V280H16V472a8 8 0 0 0 11.3525 7.2637l100.9668-46.6 124.8716 46.8271a8.0056 8.0056 0 0 0 5.6182 0l125.1548-46.9331 101.164 38.9092A8 8 0 0 0 496 464V272H480zM32 376h88v42.8813L32 459.4966zm224 87.4561l-56-21V376h21.7056L280 412.4341v42.022zM392 352V304h88v48z"/><path d="M490.8721,176.5332l-104-40a8.0034,8.0034,0,0,0-5.2583-.1689L256,175.6187l-21.6138-6.7544-4.7724,15.2714,24,7.5a8.0023,8.0023,0,0,0,4.7724,0L312,174.8815v162.17l-59.5625-39.708A7.9958,7.9958,0,0,0,248,296H232V264H216v40a8,8,0,0,0,8,8h21.5776l69.9849,46.6562A8,8,0,0,0,328,352V169.8815l48-15V232a8,8,0,0,0,8,8h96v16h16V184A8,8,0,0,0,490.8721,176.5332ZM392,224V155.6485l88,33.8461V224Z"/><path d="M145.011,187.707C124.5558,193.0159,112,203.4581,112,216c0,5.6826,2.7607,16.3994,21.251,24.3237C144.8013,245.2739,159.9829,248,176,248s31.1987-2.7261,42.749-7.6763C237.2393,232.3994,240,221.6826,240,216c0-12.6688-12.3475-23.0115-32.9977-28.3083,2.3761-2.7422,4.8081-5.6483,7.2448-8.6941C236.644,151.0015,248,125.7686,248,104a72,72,0,0,0-144,0c0,21.7686,11.356,47.0015,33.7529,74.9976C140.1942,182.0491,142.6306,184.96,145.011,187.707ZM224,216c0,5.6406-18.2236,16-48,16s-48-10.3594-48-16c0-4.2263,10.5059-11.51,29.6276-14.5834,7.4468,7.6311,12.7232,12.27,13.1043,12.6039a8,8,0,0,0,10.5362,0c.3811-.3334,5.658-4.9733,13.1055-12.605C215.2727,204.7442,224,212.457,224,216ZM176,48a56.0636,56.0636,0,0,1,56,56c0,17.74-10.4053,40.15-30.0908,64.8071a297.655,297.655,0,0,1-25.9112,28.2837,297.1764,297.1764,0,0,1-25.7509-28.0884C130.459,144.2676,120,121.7905,120,104A56.0636,56.0636,0,0,1,176,48Z"/><path d="M176,136a32,32,0,1,0-32-32A32.0361,32.0361,0,0,0,176,136Zm0-48a16,16,0,1,1-16,16A16.0183,16.0183,0,0,1,176,88Z"/></svg>