<svg width="187" height="183" fill="none" xmlns="http://www.w3.org/2000/svg"><path d="M85.053 14.132S85.053 3 94.684 3c9.632 0 9.632 11.132 9.632 11.132v9.631s0 9.632-9.632 9.632c-9.631 0-9.631-9.632-9.631-9.632v-9.631zm86.684 67.42s12.263 0 12.263 9.632-12.263 9.632-12.263 9.632h-9.632s-9.631 0-9.631-9.632c0-9.631 9.631-9.631 9.631-9.631h9.632zm-144.474 0s9.632 0 9.632 9.632-9.632 9.632-9.632 9.632h-9.631S4 100.816 4 91.184c0-9.631 13.632-9.631 13.632-9.631h9.631zm24.662-41.926s6.81 6.81 0 13.62c-6.81 6.809-13.62 0-13.62 0l-6.814-6.81s-11.037-11.038-4.228-17.852c6.814-6.81 17.852 4.228 17.852 4.228l6.81 6.814zm101.131 101.127s11.043 11.043 4.233 17.852c-6.809 6.81-17.852-4.233-17.852-4.233l-6.809-6.809s-6.81-6.81 0-13.619c6.809-6.81 13.619 0 13.619 0l6.809 6.809zm-1.989-87.512s-6.809 6.81-13.619 0c-6.809-6.81 0-13.62 0-13.62l6.81-6.809s11.038-11.038 17.847-4.228c6.81 6.81-4.228 17.847-4.228 17.847l-6.81 6.81zM49.936 154.372s-11.043 11.043-17.852 4.233c-6.81-6.809 4.233-17.852 4.233-17.852l6.81-6.809s6.809-6.81 13.618 0c6.81 6.809 0 13.619 0 13.619l-6.81 6.809zm35.117 4.233s0-9.631 9.631-9.631c9.632 0 9.632 9.631 9.632 9.631v9.632s0 12.263-9.632 12.263c-9.631 0-9.631-12.263-9.631-12.263v-9.632zm57.789-67.42c0-26.598-21.565-48.159-48.158-48.159-26.597 0-48.158 21.56-48.158 48.158 0 26.593 21.56 48.158 48.158 48.158 26.593 0 48.158-21.565 48.158-48.158z" fill="#FFAC33"/><g filter="url(#a)"><path d="m93.96 96.052.023.041.022.042.022.043.021.043.021.043.02.044.02.044.02.045.018.045.018.046.017.047.017.047.016.047.016.047.015.049.014.048.014.05.013.049.013.05.011.05.012.051.01.051.01.052.009.051.008.053.008.052.007.053.007.054.005.053.005.055.004.054.004.054.002.055.002.056.002.055v.112l-.001.056-.002.057-.003.056-.003.057-.004.058-.005.057-.006.058-.007.058-.007.058-.008.058-.01.058-.009.058-.01.059-.012.059-.012.059-.013.058-.014.06-.015.058-.016.06-.016.059-.017.06-.019.058-.019.06-.02.06-.02.058-.022.06-.022.06-.024.058-.024.06-.025.059-.026.059-.026.059-.028.059-.029.059-.029.059-.03.058-.031.059-.032.058-.033.058-.034.058-.035.058-.035.058-.037.058-.037.057-.038.057-.039.057-.04.056-.04.057-.042.056-.042.056-.044.055-.044.055-.045.055-.046.055-.047.054-.047.054-.049.053-.05.053-.05.053-.05.052-.052.052-.053.052-.054.051-.054.051-.055.05-.056.05-.057.049-.058.049-.059.048-.059.048-.06.047-.06.047-.063.046-.062.045-.063.045-.065.045-.064.044-.066.043-.066.043-.068.042-.067.041-.07.041-.069.04-.07.04-.07.038-.072.039-.073.037-.073.037-.073.036-.075.035-.075.035-.076.033-.076.033-.077.033-.078.031-.079.031-.079.03-.08.029-.08.028-.08.028-.083.027-.082.025-.082.025-.084.025-.084.023-.084.022-.085.022-.086.02-.086.02-.087.019-.087.018-.088.017-.088.016-.089.015-.089.014-.09.013-.09.012-.09.011-.091.011-.091.009-.092.008-.093.007-.092.007-.093.005-.093.004-.094.003-.094.002-.095.001h-.094l-.096-.001-.095-.002-.096-.003-.095-.004-.096-.006-.097-.006-.097-.007-.097-.009-.097-.01-.097-.011-.097-.011-.098-.014-.098-.014-.098-.015-.098-.016-.098-.018-.099-.019-.098-.019-.099-.021-.098-.023-.099-.023-.099-.024-.098-.026-.1-.027-.098-.027-.099-.03-.098-.03-.1-.031-.098-.033-.098-.034-.099-.034-.098-.037-.099-.037-.098-.038-.098-.04-.098-.041-.097-.042-.098-.043-.097-.045-.098-.045-.096-.047-.097-.048-.097-.049-.096-.05-.096-.052-.096-.053-.095-.054-.095-.055-.094-.056-.095-.057-.094-.059-.093-.06-.094-.061-.092-.062-.093-.063-.092-.065-.091-.065-.091-.067-.09-.068-.09-.069-.09-.071-.09-.071-.088-.073-.088-.074-.087-.074-.087-.076-.086-.078-.086-.078-.085-.079-.084-.081-.084-.082-.083-.082-.082-.084-.082-.085-.08-.086-.08-.087-.08-.089-.079-.09-.078-.09-.077-.09-.077-.093-.075-.094-.075-.095-.074-.095-.073-.097-.072-.098-.072-.098-.07-.1-.07-.1-.068-.103-.068-.102-.067-.104-.066-.105-.064-.105-.064-.107-.063-.107-.062-.109-.061-.11-.06-.11-.059-.11-.058-.113-.056-.113-.056-.113-.054-.115-.054-.116-.052-.116-.051-.117-.05-.118-.05-.12-.047-.119-.047-.12-.045-.121-.044-.122-.043-.123-.042-.124-.04-.124-.04-.125-.038-.125-.037-.127-.035-.127-.034-.127-.033-.129-.032-.129-.03-.13-.03-.13-.027-.13-.026-.132-.026-.132-.023-.132-.022-.133-.021-.134-.02-.134-.018-.135-.017-.135-.015-.136-.014-.136-.013-.136-.01-.137-.01-.138-.008-.137-.007-.139-.005-.138-.004-.14-.003-.138v-.28l.002-.14.004-.14.005-.141.007-.141.008-.142.01-.141.011-.142.013-.142.014-.142.016-.142.017-.142.02-.142.02-.143.022-.143.024-.142.025-.143.027-.143.028-.143.03-.142.032-.143.033-.143.035-.143.036-.142.038-.143.04-.142.04-.143.043-.142.044-.142.046-.142.048-.141.05-.142.05-.141.052-.141.054-.141.056-.14.057-.14.059-.14.06-.14.062-.14.064-.138.065-.139.066-.138.069-.137.07-.137.072-.137.073-.136.075-.136.076-.135.078-.135.08-.134.08-.134.083-.133.085-.132.085-.132.088-.132.089-.13.09-.13.092-.13.094-.128.095-.127.097-.127.098-.127.1-.125.101-.125.103-.124.105-.123.106-.122.107-.121.109-.12.11-.12.112-.119.113-.118.115-.116.116-.116.118-.115.119-.114.12-.113.123-.111.123-.111.125-.11.126-.108.127-.108.13-.106.13-.105.131-.104.133-.103.135-.102.135-.1.137-.1.139-.097.14-.097.14-.096.142-.094.144-.093.144-.092.146-.09.147-.089.149-.088.15-.086.15-.085.152-.083.153-.082.154-.08.155-.08.157-.078.157-.076.16-.075.159-.073.16-.072.163-.07.162-.069.164-.067.165-.065.166-.064.167-.063.168-.06.168-.06.17-.057.17-.056.172-.054.173-.053.173-.05.174-.05.175-.047.176-.046.176-.044.177-.042.179-.04.178-.04.18-.037.18-.035.181-.034.182-.031.182-.03.183-.028.183-.026.184-.025.185-.022.185-.02.186-.02.186-.017.187-.015.188-.013.187-.011.189-.01.188-.007.19-.006.189-.003.19-.002h.19l.19.002.19.004.192.007.191.008.192.01.191.012.192.014.193.016.192.017.192.02.193.022.193.024.193.026.192.028.193.03.193.032.193.034.193.036.193.038.192.04.193.042.192.044.193.047.192.048.192.05.192.052.191.055.192.056.19.058.192.06.19.063.19.065.19.066.189.069.189.07.189.073.188.075.188.076.187.08.186.08.186.083.186.084.185.087.184.09.184.09.183.093.183.095.181.096.181.1.181.1.179.103.179.105.178.107.177.108.176.111.176.113.174.114.174.117.172.118.172.12.171.123.169.124.169.126.168.128.166.13.166.132.164.134.164.135.162.138.161.139.159.141.159.143.157.145.156.146.155.149.153.15.153.152.15.153.15.156.148.157.147.159.145.16.144.162.142.164.141.166.139.167.138.17.136.17.135.172.133.174.132.175.13.177.128.179.127.18.125.181.123.184.121.184.12.186.118.188.117.189.114.19.113.192.111.194.109.194.107.196.106.198.103.199.102.2.1.201.097.203.096.204.094.205.092.206.09.208.088.209.085.21.084.21.082.213.08.213.077.215.076.215.073.217.071.217.069.219.067.22.065.22.062.222.061.222.058.223.056.225.053.225.052.226.049.226.047.228.045.228.042.229.04.23.038.23.035.231.033.232.031.233.028.233.026.233.024.234.021.235.019.235.017.236.014.236.011.237.01.237.006.237.005.238.002.238-.001.239-.003.239-.005.239-.008.239-.011.24-.013.24-.015.239-.018.24-.02.24-.023.24-.025.241-.028.24-.031.24-.032.241-.036.24-.038.24-.04.24-.043.241-.046.239-.048.24-.05.24-.054.239-.055.239-.058.239-.061.239-.063.238-.066.238-.068.237-.071.237-.074.237-.076.236-.078.236-.081.235-.083.235-.087.234-.088.233-.091.233-.094.233-.096.231-.098.231-.102.23-.103.23-.106.228-.109.228-.111.227-.113.227-.116.225-.119.224-.121.224-.123.222-.126.222-.128.221-.131.219-.133.219-.136.217-.138.216-.14.215-.143.214-.145.213-.148.212-.149.21-.153.209-.154.208-.157.206-.159.205-.162.204-.164.202-.166.201-.168.2-.171.198-.172.196-.176.195-.177.194-.179.191-.182.191-.184.188-.186.187-.188.186-.191.183-.192.182-.195.181-.197.178-.198.177-.201.175-.203.173-.205.171-.207.169-.209.168-.211.166-.212.163-.215.162-.217.159-.219.158-.22.156-.222.153-.225.152-.226.149-.227.148-.23.145-.231.143-.234.141-.234.138-.237.137-.238.134-.24.132-.242.13-.243.127-.245.126-.246.122-.248.121-.25.118-.25.116-.253.113-.254.111-.255.108-.257.106-.258.104-.26.101-.26.098-.263.096-.263.094-.265.091-.266.088-.267.086-.268.083-.27.081-.27.078-.272.075-.273.073-.275.07-.275.067-.275.065-.278.062-.278.059-.279.057-.28.053-.28.051-.282.049-.282.045-.283.043-.284.039-.285.038-.285.034-.286.031-.287.029-.287.025-.288.023-.288.02-.29.017-.289.014-.29.012-.29.008-.291.006-.292.002h-.291l-.292-.003-.292-.007-.293-.009-.293-.012-.293-.015-.293-.018-.293-.021-.293-.024-.294-.027-.293-.03-.294-.033-.294-.035-.293-.039-.293-.042-.294-.045-.293-.048-.293-.05-.293-.054-.292-.057-.293-.06-.292-.063-.292-.065-.291-.069-.291-.072-.29-.075-.291-.077-.29-.081-.29-.084-.288-.086-.288-.09-.287-.093-.287-.095-.287-.099-.285-.102-.285-.104-.284-.108-.283-.11-.282-.114-.282-.116-.28-.119-.28-.123-.28-.125-.277-.128-.277-.131-.276-.134-.275-.136-.273-.14-.273-.143-.271-.145-.27-.148-.27-.152-.267-.154-.266-.156-.265-.16-.264-.163-.262-.165-.261-.168-.26-.171-.258-.173-.256-.177-.255-.179-.254-.182-.252-.184-.25-.187-.248-.19-.247-.193-.245-.195-.244-.198-.242-.201-.24-.203-.238-.206-.236-.208-.234-.211-.233-.213-.23-.216-.229-.219-.226-.221-.225-.223-.222-.226-.22-.228-.219-.231-.216-.233-.214-.236-.212-.238-.21-.24-.207-.243-.205-.245-.203-.247-.2-.249-.199-.252-.195-.254-.194-.256-.19-.258-.19-.261-.186-.262-.183-.265-.181-.267-.179-.269-.176-.27-.173-.273-.171-.275-.168-.277-.166-.279-.163-.28-.16-.283-.157-.284-.155-.286-.152-.288-.149-.29-.146-.292-.144-.293-.14-.295-.138-.297-.135-.298-.132-.3-.129-.302-.126-.303-.123-.304-.12-.307-.117-.307-.114-.309-.111-.311-.108-.312-.105-.313-.102-.314-.099-.316-.095-.317-.093-.319-.09-.319-.085-.321-.083-.322-.08-.323-.077-.324-.073-.325-.07-.326-.067-.328-.063-.328-.06-.329-.057-.33-.054-.33-.05-.332-.047-.332-.044-.334-.04-.334-.037-.334-.034-.335-.03-.336-.027-.337-.023-.337-.02-.337-.016-.338-.013-.339-.01-.339-.006-.34-.003-.339v-.34l.005-.34.008-.34.011-.341.015-.341.018-.341.022-.341.025-.342.028-.34.032-.342.036-.341.04-.342.042-.34.046-.342.05-.34.053-.34.057-.341.06-.34.064-.34.067-.34.071-.338.075-.339.078-.338.081-.337.085-.338.089-.336.092-.336.095-.335.1-.335.102-.334.106-.333.11-.332.112-.332.117-.33.12-.33.123-.329.127-.328.13-.327.134-.326.138-.324.14-.324.145-.322.147-.322.151-.32.154-.319.158-.317.161-.317.165-.315.168-.313.171-.312.175-.311.178-.31.18-.307.185-.306.188-.304.191-.303.195-.301.197-.3.201-.298.204-.296.208-.294.21-.292.214-.29.216-.29.22-.286.224-.285.226-.282.229-.281.232-.279.236-.276.238-.274.241-.273.245-.27.247-.267.25-.266.254-.263.256-.26.259-.26.262-.256.265-.253.267-.252.27-.248.274-.247.276-.243.278-.242.282-.238.284-.236.287-.234.289-.23.292-.228.294-.225.297-.223.3-.22.302-.216.305-.214.307-.211.31-.209.311-.205.314-.202.317-.2.319-.196.32-.193.324-.19.326-.187.328-.184.33-.181.332-.178.334-.175.336-.17.339-.169.34-.165.342-.162.345-.158.346-.155.348-.151.35-.149.352-.145.353-.141.355-.138.357-.135.359-.13.36-.129.362-.124.364-.12.365-.118.366-.113.368-.11.37-.106.37-.103.373-.1.373-.095.375-.092.376-.088.378-.085.378-.08.38-.077.38-.074.383-.07.382-.065.384-.062.385-.058.386-.055.387-.05.387-.047.388-.043.39-.04.39-.035.39-.031.39-.028.393-.023.392-.02.393-.016.393-.012.394-.008.394-.004H94l.395.004.395.007.396.012.395.015.396.02.396.024.396.027.396.032.397.035.396.04.396.043.396.047.396.052.395.055.396.06.395.063.395.067.394.072.394.075.394.08.393.083.392.087.392.091.392.096.391.099.39.103.389.107.389.111.388.115.387.12.386.122.385.127.384.131.383.135.382.139.381.142.38.147.379.15.377.155.376.158.375.162.374.166.372.17.371.173.369.177.368.182.366.185.364.188.364.193.361.196.36.2.357.204.357.208.354.211.352.215.351.218.348.223.347.226.345.229.342.233.341.237.338.24.336.244.334.247.332.25.329.255.327.258.325.26.322.265.32.268.318.272.315.274.312.278.31.282.307.284.305.288.302.291.299.295.296.297.294.3.291.305.287.307.285.31.283.313.279.316.276.319.273.322.27.325.267.328.264.33.261.334.257.337.254.339.251.342.248.344.245.348.241.35.237.353.235.355.231.358.227.36.224.364.221.365.217.368.213.37.21.373.206.375.202.378.199.38.195.381.191.384.188.386.184.389.18.39.176.393.172.394.169.397.164.398.161.4.157.402.152.405.149.405.145.408.14.41.137.41.133.413.128.414.125.415.12.418.116.418.112.42.107.422.104.423.099.424.095.425.091.427.087.428.082.429.078.43.074.431.069.432.065.434.061.434.056.434.052.436.048.437.043.437.038.438.035.439.03.44.025.44.021.44.017.44.012.442.007.442.003.442-.001.442-.006.443-.01.443-.015.443-.02.443-.024.444-.028.443-.033.443-.038.444-.042.443-.046.443-.051.443-.056.443-.06.442-.065.442-.069.442-.074.441" stroke="red" stroke-width="2"/></g><defs><filter id="a" x="51.725" y="55.339" width="88.406" height="77.315" filterUnits="userSpaceOnUse" color-interpolation-filters="sRGB"><feFlood flood-opacity="0" result="BackgroundImageFix"/><feColorMatrix in="SourceAlpha" values="0 0 0 0 0 0 0 0 0 0 0 0 0 0 0 0 0 0 127 0" result="hardAlpha"/><feOffset dy="4"/><feGaussianBlur stdDeviation="2"/><feComposite in2="hardAlpha" operator="out"/><feColorMatrix values="0 0 0 0 0 0 0 0 0 0 0 0 0 0 0 0 0 0 0.25 0"/><feBlend in2="BackgroundImageFix" result="effect1_dropShadow_1_2"/><feBlend in="SourceGraphic" in2="effect1_dropShadow_1_2" result="shape"/></filter></defs></svg>