<svg width="187" height="183" viewBox="0 0 187 183" fill="none" xmlns="http://www.w3.org/2000/svg">
<path d="M85.0526 14.1316C85.0526 14.1316 85.0526 3 94.6842 3C104.316 3 104.316 14.1316 104.316 14.1316V23.7631C104.316 23.7631 104.316 33.3947 94.6842 33.3947C85.0526 33.3947 85.0526 23.7631 85.0526 23.7631V14.1316ZM171.737 81.5526C171.737 81.5526 184 81.5526 184 91.1842C184 100.816 171.737 100.816 171.737 100.816H162.105C162.105 100.816 152.474 100.816 152.474 91.1842C152.474 81.5526 162.105 81.5526 162.105 81.5526H171.737ZM27.2632 81.5526C27.2632 81.5526 36.8947 81.5526 36.8947 91.1842C36.8947 100.816 27.2632 100.816 27.2632 100.816H17.6316C17.6316 100.816 4 100.816 4 91.1842C4 81.5526 17.6316 81.5526 17.6316 81.5526H27.2632ZM51.9248 39.6264C51.9248 39.6264 58.7343 46.4359 51.9248 53.2454C45.1153 60.0549 38.3058 53.2454 38.3058 53.2454L31.4914 46.4359C31.4914 46.4359 20.4536 35.3981 27.2632 28.5838C34.0775 21.7742 45.1153 32.812 45.1153 32.812L51.9248 39.6264ZM153.056 140.753C153.056 140.753 164.099 151.796 157.289 158.605C150.48 165.415 139.437 154.372 139.437 154.372L132.628 147.563C132.628 147.563 125.818 140.753 132.628 133.944C139.437 127.134 146.247 133.944 146.247 133.944L153.056 140.753ZM151.067 53.2406C151.067 53.2406 144.258 60.0501 137.448 53.2406C130.639 46.4311 137.448 39.6215 137.448 39.6215L144.258 32.812C144.258 32.812 155.296 21.7742 162.105 28.5838C168.915 35.3933 157.877 46.4311 157.877 46.4311L151.067 53.2406ZM49.9359 154.372C49.9359 154.372 38.8933 165.415 32.0838 158.605C25.2742 151.796 36.3168 140.753 36.3168 140.753L43.1264 133.944C43.1264 133.944 49.9359 127.134 56.7454 133.944C63.5549 140.753 56.7454 147.563 56.7454 147.563L49.9359 154.372ZM85.0526 158.605C85.0526 158.605 85.0526 148.974 94.6842 148.974C104.316 148.974 104.316 158.605 104.316 158.605V168.237C104.316 168.237 104.316 180.5 94.6842 180.5C85.0526 180.5 85.0526 168.237 85.0526 168.237V158.605ZM142.842 91.1842C142.842 64.5866 121.277 43.0263 94.6842 43.0263C68.0866 43.0263 46.5263 64.5866 46.5263 91.1842C46.5263 117.777 68.0866 139.342 94.6842 139.342C121.277 139.342 142.842 117.777 142.842 91.1842Z" fill="#FFAC33"/>
<g filter="url(#filter0_d_1_2)">
<path d="M93.9598 96.0523L93.9827 96.0935L94.0051 96.1353L94.027 96.1776L94.0483 96.2205L94.0691 96.2639L94.0894 96.3077L94.1091 96.3521L94.1282 96.397L94.1468 96.4424L94.1648 96.4883L94.1822 96.5347L94.1991 96.5815L94.2153 96.6288L94.2309 96.6765L94.2459 96.7247L94.2603 96.7734L94.274 96.8224L94.2871 96.872L94.2996 96.9219L94.3114 96.9722L94.3226 97.023L94.333 97.0741L94.3429 97.1256L94.352 97.1775L94.3604 97.2298L94.3682 97.2825L94.3752 97.3355L94.3816 97.3888L94.3872 97.4425L94.3921 97.4965L94.3963 97.5508L94.3997 97.6054L94.4024 97.6604L94.4044 97.7156L94.4056 97.7711L94.4061 97.8269L94.4058 97.8829L94.4047 97.9392L94.4029 97.9958L94.4003 98.0525L94.3969 98.1095L94.3927 98.1668L94.3877 98.2242L94.382 98.2818L94.3754 98.3396L94.368 98.3976L94.3599 98.4557L94.3509 98.514L94.3411 98.5724L94.3304 98.631L94.319 98.6897L94.3067 98.7485L94.2936 98.8074L94.2797 98.8664L94.2649 98.9255L94.2493 98.9846L94.2328 99.0439L94.2155 99.1031L94.1973 99.1624L94.1783 99.2217L94.1585 99.2811L94.1377 99.3404L94.1162 99.3997L94.0937 99.4591L94.0704 99.5183L94.0463 99.5776L94.0212 99.6368L93.9953 99.6959L93.9685 99.755L93.9409 99.814L93.9124 99.8729L93.883 99.9316L93.8528 99.9903L93.8216 100.049L93.7896 100.107L93.7568 100.165L93.723 100.223L93.6884 100.281L93.6529 100.339L93.6165 100.397L93.5793 100.454L93.5412 100.511L93.5022 100.568L93.4623 100.624L93.4216 100.681L93.38 100.737L93.3375 100.793L93.2942 100.848L93.25 100.903L93.2049 100.958L93.159 101.013L93.1122 101.067L93.0646 101.121L93.0161 101.174L92.9667 101.227L92.9165 101.28L92.8655 101.332L92.8136 101.384L92.7609 101.436L92.7073 101.487L92.6529 101.538L92.5977 101.588L92.5416 101.638L92.4848 101.687L92.4271 101.736L92.3685 101.784L92.3092 101.832L92.2491 101.879L92.1882 101.926L92.1264 101.972L92.0639 102.017L92.0006 102.062L91.9365 102.107L91.8716 102.151L91.806 102.194L91.7396 102.237L91.6724 102.279L91.6045 102.32L91.5358 102.361L91.4664 102.401L91.3962 102.441L91.3253 102.479L91.2537 102.518L91.1814 102.555L91.1083 102.592L91.0346 102.628L90.9601 102.663L90.885 102.698L90.8092 102.731L90.7327 102.764L90.6556 102.797L90.5778 102.828L90.4993 102.859L90.4202 102.889L90.3404 102.918L90.2601 102.946L90.1791 102.974L90.0975 103.001L90.0153 103.026L89.9325 103.051L89.8491 103.076L89.7652 103.099L89.6807 103.121L89.5956 103.143L89.51 103.163L89.4238 103.183L89.3371 103.202L89.2499 103.22L89.1622 103.237L89.074 103.253L88.9853 103.268L88.8961 103.282L88.8065 103.295L88.7164 103.307L88.6259 103.318L88.5349 103.329L88.4435 103.338L88.3517 103.346L88.2594 103.353L88.1668 103.36L88.0738 103.365L87.9805 103.369L87.8867 103.372L87.7927 103.374L87.6983 103.375H87.6035L87.5085 103.374L87.4132 103.372L87.3175 103.369L87.2216 103.365L87.1255 103.359L87.029 103.353L86.9324 103.346L86.8355 103.337L86.7384 103.327L86.6411 103.316L86.5436 103.305L86.4459 103.291L86.3481 103.277L86.2501 103.262L86.152 103.246L86.0537 103.228L85.9554 103.209L85.8569 103.19L85.7584 103.169L85.6598 103.146L85.5611 103.123L85.4624 103.099L85.3637 103.073L85.2649 103.046L85.1661 103.019L85.0674 102.989L84.9686 102.959L84.8699 102.928L84.7713 102.895L84.6727 102.861L84.5742 102.827L84.4758 102.79L84.3775 102.753L84.2793 102.715L84.1812 102.675L84.0833 102.634L83.9856 102.592L83.888 102.549L83.7906 102.504L83.6934 102.459L83.5965 102.412L83.4998 102.364L83.4033 102.315L83.3071 102.265L83.2111 102.213L83.1155 102.16L83.0202 102.106L82.9252 102.051L82.8305 101.995L82.7361 101.938L82.6422 101.879L82.5486 101.819L82.4554 101.758L82.3626 101.696L82.2702 101.633L82.1783 101.568L82.0868 101.503L81.9958 101.436L81.9052 101.368L81.8152 101.299L81.7256 101.228L81.6366 101.157L81.5481 101.084L81.4602 101.01L81.3728 100.936L81.286 100.86L81.1998 100.782L81.1143 100.704L81.0293 100.625L80.945 100.544L80.8613 100.462L80.7783 100.38L80.6959 100.296L80.6143 100.211L80.5334 100.125L80.4532 100.038L80.3737 99.9493L80.295 99.8599L80.217 99.7695L80.1398 99.6781L80.0634 99.5856L79.9879 99.492L79.9131 99.3974L79.8392 99.3017L79.7661 99.205L79.6938 99.1073L79.6225 99.0086L79.552 98.9089L79.4824 98.8081L79.4138 98.7064L79.346 98.6037L79.2792 98.5L79.2134 98.3953L79.1485 98.2897L79.0846 98.1832L79.0217 98.0757L78.9598 97.9672L78.8989 97.8579L78.8391 97.7476L78.7802 97.6364L78.7225 97.5244L78.6658 97.4114L78.6101 97.2976L78.5556 97.1829L78.5022 97.0673L78.4499 96.951L78.3987 96.8337L78.3486 96.7157L78.2997 96.5969L78.252 96.4772L78.2054 96.3568L78.16 96.2355L78.1158 96.1136L78.0728 95.9908L78.0311 95.8674L77.9905 95.7431L77.9512 95.6182L77.9132 95.4926L77.8764 95.3663L77.8408 95.2393L77.8066 95.1116L77.7736 94.9833L77.742 94.8543L77.7116 94.7247L77.6826 94.5945L77.6549 94.4637L77.6285 94.3322L77.6035 94.2003L77.5798 94.0677L77.5575 93.9346L77.5366 93.801L77.5171 93.6668L77.4989 93.5322L77.4822 93.397L77.4668 93.2614L77.4529 93.1253L77.4404 92.9887L77.4293 92.8518L77.4197 92.7144L77.4115 92.5766L77.4048 92.4384L77.3996 92.2998L77.3958 92.1609L77.3934 92.0216L77.3926 91.882L77.3933 91.7421L77.3954 91.6019L77.3991 91.4614L77.4042 91.3206L77.4109 91.1796L77.4191 91.0384L77.4288 90.8969L77.4401 90.7553L77.4529 90.6134L77.4672 90.4714L77.4831 90.3292L77.5005 90.1869L77.5194 90.0445L77.54 89.902L77.5621 89.7593L77.5857 89.6166L77.611 89.4739L77.6378 89.3311L77.6662 89.1883L77.6962 89.0455L77.7277 88.9027L77.7609 88.76L77.7956 88.6173L77.8319 88.4747L77.8698 88.3321L77.9094 88.1896L77.9505 88.0473L77.9932 87.9051L78.0375 87.7631L78.0834 87.6212L78.1309 87.4795L78.1801 87.338L78.2308 87.1968L78.2832 87.0558L78.3371 86.915L78.3927 86.7745L78.4498 86.6343L78.5086 86.4945L78.569 86.3549L78.6309 86.2157L78.6945 86.0769L78.7597 85.9384L78.8265 85.8004L78.8949 85.6628L78.9649 85.5256L79.0365 85.3889L79.1097 85.2526L79.1845 85.1168L79.2609 84.9816L79.3388 84.8468L79.4184 84.7126L79.4995 84.579L79.5822 84.446L79.6665 84.3135L79.7523 84.1817L79.8398 84.0505L79.9288 83.92L80.0193 83.7901L80.1114 83.6609L80.2051 83.5324L80.3003 83.4047L80.397 83.2776L80.4953 83.1514L80.5951 83.0259L80.6964 82.9012L80.7993 82.7773L80.9037 82.6543L81.0095 82.5321L81.1169 82.4107L81.2258 82.2903L81.3361 82.1707L81.4479 82.0521L81.5612 81.9344L81.676 81.8176L81.7922 81.7018L81.9099 81.587L82.029 81.4732L82.1495 81.3604L82.2715 81.2487L82.3949 81.138L82.5196 81.0283L82.6458 80.9198L82.7734 80.8124L82.9023 80.706L83.0326 80.6008L83.1643 80.4968L83.2973 80.3939L83.4317 80.2923L83.5674 80.1918L83.7044 80.0925L83.8427 79.9945L83.9823 79.8977L84.1231 79.8022L84.2653 79.7079L84.4087 79.615L84.5534 79.5233L84.6993 79.433L84.8464 79.344L84.9947 79.2564L85.1443 79.1702L85.295 79.0853L85.4469 79.0019L85.5999 78.9198L85.7541 78.8392L85.9095 78.76L86.0659 78.6823L86.2235 78.6061L86.3821 78.5313L86.5419 78.4581L86.7027 78.3863L86.8645 78.3161L87.0274 78.2474L87.1913 78.1803L87.3562 78.1148L87.5221 78.0508L87.689 77.9884L87.8568 77.9276L88.0255 77.8685L88.1952 77.811L88.3658 77.7551L88.5374 77.7009L88.7097 77.6483L88.883 77.5974L89.0571 77.5483L89.232 77.5008L89.4077 77.455L89.5842 77.411L89.7615 77.3686L89.9396 77.3281L90.1184 77.2893L90.2979 77.2522L90.4782 77.217L90.6591 77.1835L90.8407 77.1518L91.023 77.122L91.2059 77.0939L91.3894 77.0677L91.5735 77.0433L91.7581 77.0208L91.9434 77.0001L92.1292 76.9812L92.3155 76.9643L92.5023 76.9492L92.6896 76.936L92.8774 76.9247L93.0656 76.9153L93.2542 76.9079L93.4432 76.9023L93.6327 76.8987L93.8224 76.897L94.0126 76.8972L94.203 76.8994L94.3938 76.9035L94.5849 76.9096L94.7762 76.9176L94.9677 76.9276L95.1595 76.9396L95.3515 76.9536L95.5437 76.9696L95.736 76.9875L95.9285 77.0074L96.1211 77.0294L96.3138 77.0533L96.5065 77.0792L96.6994 77.1072L96.8922 77.1372L97.0851 77.1691L97.278 77.2031L97.4708 77.2392L97.6636 77.2772L97.8563 77.3173L98.0489 77.3594L98.2414 77.4035L98.4338 77.4497L98.626 77.4979L98.818 77.5481L99.0098 77.6004L99.2014 77.6547L99.3927 77.711L99.5838 77.7694L99.7746 77.8298L99.965 77.8923L100.155 77.9568L100.345 78.0233L100.534 78.0919L100.723 78.1625L100.912 78.2351L101.1 78.3098L101.288 78.3865L101.475 78.4652L101.661 78.546L101.847 78.6287L102.033 78.7135L102.218 78.8003L102.402 78.8892L102.586 78.98L102.769 79.0728L102.952 79.1677L103.133 79.2645L103.314 79.3634L103.495 79.4642L103.674 79.567L103.853 79.6718L104.031 79.7786L104.208 79.8873L104.384 79.998L104.56 80.1106L104.734 80.2252L104.908 80.3418L105.08 80.4602L105.252 80.5806L105.423 80.703L105.592 80.8272L105.761 80.9534L105.929 81.0814L106.095 81.2113L106.261 81.3431L106.425 81.4768L106.589 81.6124L106.751 81.7498L106.912 81.889L107.071 82.0301L107.23 82.173L107.387 82.3178L107.543 82.4643L107.698 82.6126L107.851 82.7627L108.004 82.9146L108.154 83.0683L108.304 83.2236L108.452 83.3808L108.599 83.5396L108.744 83.7002L108.888 83.8624L109.03 84.0264L109.171 84.192L109.31 84.3593L109.448 84.5283L109.584 84.6988L109.719 84.871L109.852 85.0448L109.984 85.2202L110.114 85.3972L110.242 85.5757L110.369 85.7558L110.494 85.9374L110.617 86.1206L110.738 86.3052L110.858 86.4913L110.976 86.6789L111.093 86.868L111.207 87.0584L111.32 87.2504L111.431 87.4437L111.54 87.6384L111.647 87.8344L111.753 88.0319L111.856 88.2306L111.958 88.4307L112.058 88.6321L112.155 88.8348L112.251 89.0387L112.345 89.2438L112.437 89.4502L112.527 89.6578L112.615 89.8666L112.7 90.0766L112.784 90.2877L112.866 90.4999L112.946 90.7133L113.023 90.9277L113.099 91.1432L113.172 91.3598L113.243 91.5774L113.312 91.796L113.379 92.0156L113.444 92.2361L113.506 92.4576L113.567 92.68L113.625 92.9034L113.681 93.1276L113.734 93.3526L113.786 93.5785L113.835 93.8052L113.882 94.0327L113.927 94.261L113.969 94.49L114.009 94.7198L114.047 94.9502L114.082 95.1814L114.115 95.4132L114.146 95.6456L114.174 95.8786L114.2 96.1122L114.224 96.3464L114.245 96.5811L114.264 96.8163L114.281 97.0521L114.295 97.2882L114.306 97.5249L114.316 97.7619L114.322 97.9994L114.327 98.2372L114.329 98.4753L114.328 98.7138L114.325 98.9526L114.32 99.1916L114.312 99.4309L114.301 99.6704L114.288 99.9101L114.273 100.15L114.255 100.39L114.235 100.63L114.212 100.87L114.187 101.111L114.159 101.351L114.128 101.591L114.096 101.832L114.06 102.072L114.022 102.312L113.982 102.552L113.939 102.793L113.893 103.032L113.845 103.272L113.795 103.512L113.741 103.751L113.686 103.99L113.628 104.229L113.567 104.468L113.504 104.706L113.438 104.944L113.37 105.181L113.299 105.418L113.225 105.655L113.149 105.891L113.071 106.127L112.99 106.362L112.907 106.597L112.82 106.831L112.732 107.064L112.641 107.297L112.547 107.53L112.451 107.761L112.353 107.992L112.251 108.222L112.148 108.452L112.042 108.68L111.933 108.908L111.822 109.135L111.709 109.362L111.593 109.587L111.474 109.811L111.353 110.035L111.23 110.257L111.104 110.479L110.976 110.7L110.845 110.919L110.712 111.138L110.576 111.355L110.438 111.571L110.298 111.786L110.155 112L110.01 112.213L109.862 112.425L109.713 112.635L109.56 112.844L109.406 113.052L109.249 113.258L109.09 113.463L108.928 113.667L108.764 113.869L108.598 114.07L108.43 114.27L108.259 114.468L108.087 114.664L107.911 114.859L107.734 115.053L107.555 115.244L107.373 115.435L107.189 115.623L107.003 115.81L106.815 115.996L106.624 116.179L106.432 116.361L106.237 116.542L106.04 116.72L105.842 116.897L105.641 117.072L105.438 117.245L105.233 117.416L105.026 117.585L104.817 117.753L104.606 117.919L104.394 118.082L104.179 118.244L103.962 118.403L103.743 118.561L103.523 118.717L103.301 118.87L103.076 119.022L102.85 119.171L102.623 119.319L102.393 119.464L102.162 119.607L101.928 119.748L101.694 119.886L101.457 120.023L101.219 120.157L100.979 120.289L100.737 120.419L100.494 120.546L100.249 120.672L100.003 120.794L99.755 120.915L99.5056 121.033L99.2546 121.149L99.0022 121.262L98.7483 121.373L98.4929 121.481L98.2362 121.587L97.978 121.691L97.7185 121.792L97.4576 121.89L97.1955 121.986L96.932 122.08L96.6672 122.171L96.4012 122.259L96.134 122.345L95.8656 122.428L95.596 122.509L95.3253 122.587L95.0535 122.662L94.7805 122.735L94.5065 122.805L94.2315 122.872L93.9555 122.937L93.6784 122.999L93.4004 123.058L93.1215 123.115L92.8417 123.168L92.561 123.219L92.2795 123.268L91.9971 123.313L91.7139 123.356L91.43 123.395L91.1453 123.433L90.86 123.467L90.5739 123.498L90.2872 123.527L89.9999 123.552L89.712 123.575L89.4235 123.595L89.1345 123.612L88.845 123.626L88.555 123.638L88.2645 123.646L87.9737 123.652L87.6824 123.654H87.3908L87.0989 123.651L86.8066 123.644L86.5141 123.635L86.2214 123.623L85.9284 123.608L85.6353 123.59L85.342 123.569L85.0486 123.545L84.7552 123.518L84.4616 123.488L84.1681 123.455L83.8745 123.42L83.581 123.381L83.2876 123.339L82.9942 123.294L82.701 123.246L82.408 123.196L82.1151 123.142L81.8225 123.085L81.5301 123.025L81.238 122.962L80.9462 122.897L80.6548 122.828L80.3637 122.756L80.0731 122.681L79.7829 122.604L79.4932 122.523L79.2039 122.439L78.9153 122.353L78.6272 122.263L78.3396 122.17L78.0528 122.075L77.7665 121.976L77.481 121.874L77.1962 121.77L76.9122 121.662L76.6289 121.552L76.3465 121.438L76.0649 121.322L75.7842 121.203L75.5045 121.08L75.2256 120.955L74.9478 120.827L74.6709 120.696L74.3951 120.562L74.1204 120.426L73.8467 120.286L73.5742 120.143L73.3029 119.998L73.0327 119.85L72.7638 119.698L72.4961 119.544L72.2298 119.388L71.9647 119.228L71.701 119.065L71.4386 118.9L71.1777 118.732L70.9182 118.561L70.6602 118.388L70.4037 118.211L70.1487 118.032L69.8952 117.85L69.6434 117.666L69.3932 117.479L69.1446 117.289L68.8977 117.096L68.6525 116.901L68.409 116.703L68.1673 116.502L67.9274 116.299L67.6893 116.093L67.4531 115.885L67.2188 115.674L66.9863 115.461L66.7558 115.245L66.5273 115.026L66.3007 114.805L66.0762 114.582L65.8537 114.356L65.6333 114.128L65.415 113.897L65.1989 113.664L64.9848 113.428L64.773 113.19L64.5634 112.95L64.356 112.707L64.1509 112.462L63.9481 112.215L63.7475 111.966L63.5494 111.714L63.3536 111.46L63.1601 111.204L62.9691 110.946L62.7806 110.685L62.5945 110.423L62.4109 110.158L62.2298 109.891L62.0512 109.622L61.8752 109.352L61.7018 109.079L61.531 108.804L61.3629 108.527L61.1974 108.248L61.0345 107.968L60.8744 107.685L60.717 107.401L60.5623 107.115L60.4104 106.827L60.2613 106.537L60.115 106.245L59.9715 105.952L59.8309 105.657L59.6931 105.36L59.5582 105.062L59.4263 104.762L59.2973 104.46L59.1712 104.157L59.048 103.853L58.9279 103.546L58.8108 103.239L58.6967 102.93L58.5856 102.619L58.4776 102.307L58.3727 101.994L58.2708 101.68L58.1721 101.364L58.0765 101.047L57.984 100.728L57.8947 100.409L57.8086 100.088L57.7257 99.766L57.6459 99.4429L57.5694 99.1188L57.4961 98.7937L57.426 98.4675L57.3593 98.1404L57.2957 97.8122L57.2355 97.4832L57.1786 97.1533L57.1249 96.8225L57.0746 96.4909L57.0277 96.1585L56.984 95.8253L56.9438 95.4914L56.9069 95.1568L56.8734 94.8216L56.8432 94.4857L56.8165 94.1493L56.7932 93.8122L56.7732 93.4747L56.7568 93.1366L56.7437 92.7982L56.7341 92.4592L56.7279 92.1199L56.7252 91.7803L56.7259 91.4403L56.7302 91.1L56.7378 90.7595L56.749 90.4188L56.7637 90.0779L56.7818 89.7368L56.8035 89.3957L56.8286 89.0544L56.8573 88.7131L56.8894 88.3719L56.9251 88.0306L56.9643 87.6894L57.007 87.3484L57.0532 87.0074L57.1029 86.6667L57.1562 86.3261L57.213 85.9858L57.2733 85.6458L57.3371 85.306L57.4045 84.9667L57.4754 84.6277L57.5498 84.2892L57.6277 83.9511L57.7092 83.6135L57.7941 83.2764L57.8826 82.9399L57.9746 82.604L58.0701 82.2688L58.1692 81.9342L58.2717 81.6003L58.3777 81.2672L58.4873 80.9349L58.6003 80.6034L58.7168 80.2727L58.8368 79.943L58.9602 79.6141L59.0871 79.2863L59.2175 78.9594L59.3514 78.6335L59.4887 78.3088L59.6294 77.9851L59.7735 77.6626L59.9211 77.3412L60.0721 77.0211L60.2265 76.7022L60.3843 76.3846L60.5455 76.0683L60.71 75.7534L60.8779 75.4398L61.0492 75.1277L61.2238 74.817L61.4017 74.5078L61.5829 74.2002L61.7675 73.8941L61.9553 73.5896L62.1464 73.2868L62.3408 72.9856L62.5384 72.6861L62.7393 72.3883L62.9434 72.0923L63.1506 71.7981L63.3611 71.5058L63.5747 71.2153L63.7915 70.9267L64.0115 70.64L64.2345 70.3554L64.4607 70.0727L64.6899 69.792L64.9222 69.5135L65.1576 69.237L65.396 68.9626L65.6374 68.6904L65.8818 68.4205L66.1292 68.1527L66.3795 67.8872L66.6327 67.624L66.8889 67.3631L67.1479 67.1046L67.4099 66.8484L67.6746 66.5947L67.9422 66.3434L68.2126 66.0946L68.4858 65.8483L68.7617 65.6045L69.0404 65.3633L69.3217 65.1247L69.6058 64.8887L69.8925 64.6554L70.1818 64.4247L70.4737 64.1968L70.7683 63.9716L71.0653 63.7491L71.365 63.5295L71.6671 63.3127L71.9717 63.0987L72.2787 62.8876L72.5882 62.6794L72.9 62.4742L73.2143 62.2719L73.5308 62.0725L73.8497 61.8762L74.1709 61.683L74.4943 61.4927L74.8199 61.3056L75.1478 61.1216L75.4778 60.9407L75.8099 60.763L76.1441 60.5884L76.4804 60.4171L76.8187 60.249L77.1591 60.0841L77.5014 59.9225L77.8457 59.7642L78.1919 59.6092L78.5399 59.4576L78.8898 59.3093L79.2416 59.1644L79.5951 59.0229L79.9504 58.8848L80.3073 58.7502L80.666 58.6191L81.0263 58.4914L81.3882 58.3672L81.7517 58.2465L82.1167 58.1294L82.4833 58.0159L82.8513 57.9059L83.2208 57.7995L83.5916 57.6967L83.9639 57.5975L84.3374 57.502L84.7123 57.4102L85.0884 57.322L85.4657 57.2375L85.8443 57.1567L86.2239 57.0797L86.6047 57.0063L86.9866 56.9368L87.3694 56.8709L87.7533 56.8089L88.1382 56.7506L88.5239 56.6962L88.9106 56.6455L89.2981 56.5987L89.6864 56.5557L90.0755 56.5166L90.4653 56.4813L90.8558 56.4498L91.2469 56.4223L91.6387 56.3986L92.031 56.3789L92.4239 56.363L92.8173 56.3511L93.2111 56.343L93.6053 56.3389L93.9999 56.3387L94.3948 56.3425L94.7901 56.3502L95.1856 56.3619L95.5813 56.3775L95.9772 56.3971L96.3732 56.4206L96.7693 56.4481L97.1655 56.4796L97.5616 56.5151L97.9578 56.5545L98.3539 56.598L98.7498 56.6454L99.1456 56.6968L99.5413 56.7522L99.9366 56.8116L100.332 56.875L100.727 56.9423L101.121 57.0137L101.515 57.089L101.909 57.1683L102.302 57.2517L102.694 57.339L103.086 57.4302L103.478 57.5255L103.869 57.6247L104.259 57.7279L104.648 57.8351L105.037 57.9463L105.425 58.0613L105.812 58.1804L106.198 58.3034L106.583 58.4303L106.967 58.5612L107.35 58.696L107.732 58.8347L108.113 58.9773L108.493 59.1239L108.872 59.2743L109.249 59.4286L109.625 59.5868L110 59.7489L110.374 59.9148L110.746 60.0845L111.117 60.2581L111.486 60.4355L111.854 60.6167L112.22 60.8017L112.584 60.9905L112.948 61.1831L113.309 61.3794L113.669 61.5795L114.026 61.7833L114.383 61.9908L114.737 62.2021L115.089 62.4169L115.44 62.6355L115.788 62.8577L116.135 63.0836L116.48 63.313L116.822 63.5461L117.163 63.7827L117.501 64.0229L117.837 64.2667L118.171 64.5139L118.503 64.7647L118.832 65.0189L119.159 65.2766L119.484 65.5378L119.806 65.8024L120.126 66.0703L120.444 66.3417L120.759 66.6164L121.071 66.8944L121.381 67.1757L121.688 67.4604L121.993 67.7482L122.295 68.0394L122.594 68.3337L122.89 68.6312L123.184 68.9318L123.475 69.2357L123.762 69.5426L124.047 69.8525L124.33 70.1656L124.609 70.4817L124.885 70.8007L125.158 71.1228L125.428 71.4477L125.695 71.7756L125.959 72.1064L126.22 72.4401L126.477 72.7765L126.731 73.1158L126.982 73.4578L127.23 73.8025L127.475 74.15L127.716 74.5001L127.953 74.8529L128.188 75.2083L128.419 75.5662L128.646 75.9267L128.87 76.2897L129.091 76.6552L129.308 77.0231L129.521 77.3935L129.731 77.7662L129.937 78.1412L130.139 78.5186L130.338 78.8982L130.533 79.28L130.724 79.6641L130.912 80.0503L131.096 80.4386L131.276 80.8291L131.452 81.2216L131.624 81.6161L131.793 82.0125L131.957 82.411L132.118 82.8113L132.275 83.2135L132.427 83.6175L132.576 84.0233L132.721 84.4309L132.861 84.8401L132.998 85.2511L133.131 85.6636L133.259 86.0778L133.384 86.4935L133.504 86.9107L133.62 87.3294L133.732 87.7495L133.839 88.1711L133.943 88.5939L134.042 89.0181L134.137 89.4435L134.228 89.8702L134.315 90.298L134.397 90.727L134.475 91.1571L134.549 91.5882L134.618 92.0204L134.683 92.4535L134.744 92.8875L134.8 93.3225L134.852 93.7582L134.9 94.1948L134.943 94.6321L134.981 95.0702L135.016 95.5089L135.046 95.9482L135.071 96.3881L135.092 96.8286L135.109 97.2695L135.121 97.7109L135.128 98.1527L135.131 98.5948L135.13 99.0372L135.124 99.48L135.114 99.9229L135.099 100.366L135.079 100.809L135.055 101.253L135.027 101.696L134.994 102.139L134.956 102.583L134.914 103.026L134.868 103.469L134.817 103.912L134.761 104.355L134.701 104.797L134.636 105.239L134.567 105.681L134.493 106.122" stroke="#FF0000" stroke-width="2"/>
</g>
<defs>
<filter id="filter0_d_1_2" x="51.7251" y="55.3387" width="88.4059" height="77.3153" filterUnits="userSpaceOnUse" color-interpolation-filters="sRGB">
<feFlood flood-opacity="0" result="BackgroundImageFix"/>
<feColorMatrix in="SourceAlpha" type="matrix" values="0 0 0 0 0 0 0 0 0 0 0 0 0 0 0 0 0 0 127 0" result="hardAlpha"/>
<feOffset dy="4"/>
<feGaussianBlur stdDeviation="2"/>
<feComposite in2="hardAlpha" operator="out"/>
<feColorMatrix type="matrix" values="0 0 0 0 0 0 0 0 0 0 0 0 0 0 0 0 0 0 0.25 0"/>
<feBlend mode="normal" in2="BackgroundImageFix" result="effect1_dropShadow_1_2"/>
<feBlend mode="normal" in="SourceGraphic" in2="effect1_dropShadow_1_2" result="shape"/>
</filter>
</defs>
</svg>
